<?xml version="1.0" standalone="no"?>
<!DOCTYPE svg PUBLIC "-//W3C//DTD SVG 20010904//EN"
 "http://www.w3.org/TR/2001/REC-SVG-20010904/DTD/svg10.dtd">
<svg version="1.0" xmlns="http://www.w3.org/2000/svg"
 width="374.000000pt" height="374.000000pt" viewBox="0 0 374.000000 374.000000"
 preserveAspectRatio="xMidYMid meet">
<metadata>
Created by potrace 1.14, written by Peter Selinger 2001-2017
</metadata>
<g transform="translate(0.000000,374.000000) scale(0.100000,-0.100000)"
fill="#000000" stroke="none">
<path d="M1845 3733 c-131 -19 -172 -47 -161 -107 4 -20 14 -37 24 -40 12 -4
18 -18 19 -51 2 -43 1 -45 -25 -46 -112 -3 -419 -87 -504 -137 -40 -24 -62
-71 -55 -121 l5 -41 -69 0 c-78 0 -76 6 -29 -93 24 -52 24 -60 -14 -159 l-26
-68 119 0 c152 0 157 5 138 114 -2 8 66 49 113 67 23 9 23 9 8 -8 -27 -30 -38
-88 -22 -111 12 -18 10 -23 -33 -58 -125 -103 -193 -217 -209 -353 -3 -31 -7
-243 -7 -471 l-1 -415 -133 1 c-73 0 -133 -2 -133 -4 0 -2 21 -38 47 -80 l47
-75 -37 -69 c-20 -37 -37 -72 -37 -76 0 -5 31 -8 69 -7 l68 1 -24 -65 c-16
-43 -22 -74 -18 -93 9 -39 68 -80 170 -119 l82 -31 32 -67 c49 -102 178 -267
328 -418 l137 -138 1 -79 0 -79 75 -113 c41 -62 78 -113 81 -113 3 -1 43 52
89 116 l84 118 1 80 0 80 109 105 c170 164 297 324 366 462 20 42 29 49 84 68
70 26 136 62 159 88 24 26 23 69 -1 135 -12 32 -22 59 -22 60 0 1 30 2 68 1
37 0 70 1 74 3 4 2 -11 37 -33 78 l-40 75 46 71 c25 38 43 74 41 78 -3 4 -63
7 -134 7 l-129 -1 0 315 c-1 624 -3 648 -74 765 -38 64 -129 159 -173 182 -21
11 -25 18 -17 26 19 19 12 72 -14 110 -18 27 -20 34 -7 27 9 -5 40 -19 69 -31
68 -27 76 -37 61 -76 -10 -26 -9 -35 6 -57 17 -27 17 -27 136 -24 66 2 120 4
120 5 0 1 -16 38 -35 82 l-35 80 30 67 c16 37 30 71 30 75 0 5 -31 9 -69 9
l-69 0 10 40 c21 81 -34 126 -232 189 -115 37 -261 68 -332 70 -25 1 -27 4
-24 41 2 26 11 48 24 61 42 39 17 104 -47 124 -34 10 -123 21 -146 18z m-115
-618 c0 -8 -13 -17 -32 -20 -54 -10 -180 -13 -171 -4 8 8 32 12 138 25 28 3
52 8 54 10 8 7 11 4 11 -11z m448 -11 c56 -11 35 -22 -35 -18 -93 5 -133 13
-133 26 0 11 97 6 168 -8z m459 -1606 c-3 -8 -6 -5 -6 6 -1 11 2 17 5 13 3 -3
4 -12 1 -19z"/>
</g>
</svg>
