<?xml version="1.0" standalone="no"?>
<!DOCTYPE svg PUBLIC "-//W3C//DTD SVG 20010904//EN"
 "http://www.w3.org/TR/2001/REC-SVG-20010904/DTD/svg10.dtd">
<svg version="1.0" xmlns="http://www.w3.org/2000/svg"
 width="1098.000000pt" height="2239.000000pt" viewBox="0 0 1098.000000 2239.000000"
 preserveAspectRatio="xMidYMid meet">

<g transform="translate(0.000000,2239.000000) scale(0.100000,-0.100000)"
fill="#000000" stroke="none">
<path d="M10923 20377 c16 -41 39 -138 34 -143 -5 -5 -46 8 -129 41 -17 7 -18
-4 -18 -138 l0 -144 70 20 c38 12 72 18 76 15 3 -4 -3 -32 -12 -63 -15 -47
-26 -62 -57 -82 -98 -62 -102 -218 -9 -325 l31 -35 -20 -39 c-60 -115 -152
-125 -190 -20 -12 33 -14 35 -53 30 -353 -43 -531 -109 -677 -254 -130 -129
-174 -249 -173 -475 0 -175 -7 -153 199 -605 178 -388 215 -482 215 -538 0
-56 -1 -57 -125 -168 -515 -461 -685 -557 -1128 -639 -76 -14 -140 -25 -143
-25 -2 0 -4 37 -4 83 0 81 1 84 63 207 132 263 191 549 138 666 -58 127 -261
217 -523 231 l-116 6 26 40 c40 60 38 127 -6 188 -30 41 -33 52 -30 105 l3 59
50 0 50 0 3 108 3 107 -50 0 -50 0 -3 53 -3 52 -117 3 -117 3 -3 -53 -3 -53
-53 -3 -53 -3 3 -107 3 -107 35 -1 c19 -1 41 -2 48 -3 8 -1 12 -19 12 -52 0
-46 -4 -56 -39 -94 -66 -72 -72 -157 -15 -210 13 -12 24 -25 24 -28 0 -4 -64
-6 -142 -6 -159 1 -251 -17 -350 -67 -134 -67 -170 -128 -170 -283 1 -164 55
-362 151 -549 51 -98 60 -141 44 -201 -6 -23 -8 -23 -77 -18 -165 14 -384 93
-482 173 -55 45 -111 155 -120 234 -10 88 23 195 128 420 135 288 181 443 182
610 1 131 -17 189 -81 260 -54 61 -87 78 -211 115 -320 93 -575 98 -735 13
-63 -34 -104 -76 -187 -193 -123 -171 -272 -269 -509 -331 -51 -13 -99 -24
-107 -24 -68 0 -214 -102 -248 -174 -64 -135 -29 -307 94 -451 92 -108 123
-161 124 -207 1 -41 -1 -44 -44 -65 -32 -16 -78 -25 -157 -33 -169 -16 -242
-49 -284 -132 -55 -108 -19 -298 74 -395 17 -18 34 -33 38 -33 4 0 10 13 14
29 9 41 59 107 94 126 39 20 94 19 133 -1 58 -30 178 -18 292 30 22 9 41 14
44 12 2 -3 -11 -23 -31 -46 -19 -23 -52 -75 -73 -117 -77 -151 -47 -262 113
-413 132 -125 265 -175 392 -149 31 6 65 16 75 21 19 10 18 12 -10 32 -97 70
-148 137 -160 214 -8 49 23 128 88 227 98 150 132 246 131 370 -1 135 -55 270
-179 440 -103 143 -109 157 -108 255 0 70 6 98 30 159 46 116 65 131 234 185
80 26 201 68 269 93 93 34 132 44 158 40 107 -18 124 -96 60 -267 -48 -127
-72 -271 -72 -430 1 -159 17 -228 72 -311 45 -68 252 -223 407 -304 148 -78
346 -135 516 -147 31 -3 35 -6 38 -34 3 -29 -1 -33 -40 -49 -24 -9 -65 -33
-93 -54 -100 -73 -98 -73 -189 -65 -108 9 -163 -4 -301 -71 -295 -142 -383
-343 -274 -625 24 -62 113 -214 149 -253 4 -5 25 2 47 16 74 47 198 105 283
132 106 35 264 40 343 11 49 -17 137 -67 137 -76 0 -3 -37 -15 -81 -28 -90
-25 -228 -79 -359 -140 -282 -132 -341 -149 -448 -132 -162 26 -314 100 -414
202 -32 32 -58 54 -58 49 0 -33 58 -201 96 -278 53 -108 116 -182 178 -211 81
-38 197 -55 336 -49 189 9 282 41 405 141 131 107 326 228 341 213 3 -3 -11
-17 -33 -30 -98 -63 -145 -137 -171 -271 -28 -139 10 -296 90 -373 54 -52 57
-49 62 67 3 58 12 129 20 159 63 230 232 334 516 318 137 -8 160 -16 255 -88
144 -109 185 -120 312 -84 l62 17 93 -68 c280 -208 478 -431 571 -641 50 -112
61 -162 61 -268 0 -82 -5 -116 -28 -190 -85 -273 -220 -422 -428 -470 -102
-23 -214 -28 -346 -16 -68 7 -126 10 -129 7 -10 -10 75 -140 132 -204 66 -72
145 -129 231 -165 60 -26 192 -57 239 -57 17 0 25 -5 23 -12 -6 -18 -200 -163
-272 -203 -127 -71 -239 -80 -344 -29 -64 31 -177 136 -242 223 -25 33 -49 59
-55 57 -13 -3 -69 -143 -90 -221 -33 -128 -13 -276 52 -378 65 -104 217 -220
375 -287 32 -14 58 -28 58 -32 0 -3 -21 -25 -47 -49 -344 -305 -909 -317
-1153 -24 -119 142 -181 304 -160 417 20 102 54 153 201 298 125 122 142 143
178 220 98 204 72 401 -78 600 -27 36 -123 137 -213 225 -175 171 -188 184
-493 465 -314 289 -528 495 -617 597 l-83 94 -22 -50 c-13 -28 -26 -51 -31
-51 -25 0 -298 311 -444 505 -154 206 -288 427 -288 475 0 34 -18 22 -36 -25
-9 -25 -21 -48 -26 -51 -19 -12 -313 275 -499 486 -401 457 -929 1256 -1030
1558 -11 34 -22 62 -24 62 -1 0 -20 -24 -42 -52 -195 -259 -293 -480 -323
-723 -39 -309 93 -640 367 -930 62 -65 103 -108 283 -300 36 -39 133 -142 215
-230 82 -88 194 -207 249 -265 226 -236 312 -330 287 -315 -17 10 -333 262
-525 418 -255 208 -303 247 -500 412 -330 274 -437 365 -578 493 -125 112
-138 121 -143 100 -41 -187 -52 -453 -22 -584 68 -298 257 -564 625 -879 77
-66 139 -122 137 -123 -2 -2 -64 21 -137 51 -232 96 -407 146 -607 172 -117
16 -341 20 -341 6 0 -35 84 -213 158 -335 121 -200 326 -459 484 -613 47 -46
83 -84 82 -86 -2 -2 -41 4 -87 14 -364 81 -611 77 -855 -13 -28 -11 -52 -24
-52 -30 0 -5 24 -47 54 -91 154 -234 478 -552 690 -677 42 -25 76 -48 76 -51
0 -4 -24 -10 -52 -14 -90 -12 -307 -71 -443 -120 -132 -48 -298 -126 -310
-145 -9 -14 91 -135 183 -220 123 -116 304 -228 470 -291 34 -13 62 -26 62
-29 0 -3 -55 -32 -123 -65 -199 -98 -407 -249 -407 -296 0 -21 111 -158 183
-225 117 -111 285 -206 415 -235 28 -7 52 -16 52 -20 0 -4 -27 -32 -60 -62
l-61 -54 34 -30 c19 -17 73 -53 120 -82 47 -28 97 -65 111 -81 13 -17 31 -30
39 -30 8 0 33 15 57 34 l43 34 69 -36 c87 -45 104 -68 88 -114 -10 -27 -9 -40
3 -71 27 -64 67 -62 134 4 23 23 61 70 84 105 23 35 45 64 49 64 16 0 103
-125 135 -192 84 -183 72 -343 -46 -587 l-59 -124 48 -51 c26 -28 60 -67 75
-86 l27 -35 103 54 c84 44 276 155 455 263 60 36 33 10 -66 -63 -157 -118
-343 -272 -403 -335 -87 -92 -104 -144 -104 -329 0 -239 15 -264 175 -299 151
-33 289 -27 356 14 37 23 218 207 370 375 277 307 377 415 381 411 3 -2 -22
-41 -54 -85 -207 -286 -317 -456 -363 -561 -20 -45 -25 -76 -28 -170 -3 -98 0
-129 22 -213 33 -127 88 -245 122 -257 37 -14 227 -11 316 4 105 19 203 53
238 82 16 14 59 82 96 152 158 299 297 558 306 567 12 13 6 -3 -58 -155 -125
-299 -152 -423 -119 -549 31 -119 131 -290 211 -361 37 -32 39 -32 108 -27 84
7 184 36 281 82 96 46 148 93 173 157 25 61 88 281 157 543 26 99 52 185 57
190 7 7 8 -2 4 -25 -23 -135 -38 -317 -33 -411 4 -92 8 -114 32 -157 35 -64
114 -140 226 -218 48 -32 102 -79 121 -104 19 -25 41 -46 51 -48 9 -2 35 14
59 36 24 21 81 59 127 83 139 73 230 172 255 274 4 17 9 184 11 373 1 189 5
345 7 347 2 2 42 9 90 15 121 15 155 29 275 117 l106 77 16 -23 c39 -57 114
-129 149 -143 20 -8 88 -25 151 -37 63 -12 122 -26 131 -31 15 -8 17 -43 23
-332 4 -178 7 -429 7 -558 l0 -235 -93 -60 c-279 -180 -480 -233 -722 -190
-44 8 -84 15 -90 15 -5 0 8 -18 30 -40 45 -46 49 -44 -98 -59 -341 -37 -581
-168 -681 -373 -65 -133 -79 -208 -76 -408 7 -421 6 -452 -13 -508 -38 -109
-114 -153 -219 -128 -32 7 -58 11 -58 8 0 -16 68 -108 105 -140 70 -62 128
-85 224 -90 110 -6 174 9 300 70 79 38 106 47 112 37 12 -20 29 -129 29 -186
0 -69 -26 -212 -50 -275 -11 -28 -17 -54 -15 -56 8 -9 127 58 190 106 33 26
79 66 103 89 l43 43 10 -28 c10 -25 7 -99 -7 -150 -12 -44 17 -21 79 62 34 47
73 107 87 133 32 62 38 66 71 42 34 -24 69 -95 69 -139 0 -49 -35 -114 -87
-160 -110 -97 -446 -237 -838 -350 -305 -87 -626 -142 -850 -143 -162 -2 -226
15 -291 75 -58 54 -74 92 -85 204 -11 112 -29 164 -74 220 -67 81 -208 125
-334 105 -60 -10 -136 -40 -193 -77 -26 -17 -28 -17 -48 1 -31 28 -130 179
-130 198 0 8 12 39 28 68 24 47 27 64 27 144 0 78 -4 97 -28 146 -33 69 -109
142 -181 175 -43 19 -53 28 -49 43 10 39 -25 125 -68 169 -23 23 -47 42 -53
42 -6 0 -17 4 -24 9 -11 7 -9 16 11 47 37 57 42 95 19 147 -22 49 -56 77 -120
98 -43 14 -44 17 -92 124 -89 204 -248 570 -273 630 -14 33 -47 112 -75 175
-27 63 -93 214 -145 335 -53 121 -118 272 -145 335 l-50 115 23 27 c50 59 37
133 -30 165 -34 16 -34 16 -29 72 5 48 3 61 -19 92 -23 34 -23 37 -8 65 22 41
22 161 -1 197 -26 39 -22 47 22 47 120 0 200 46 200 115 0 48 -22 89 -81 152
-27 28 -49 56 -49 62 0 5 22 52 48 103 69 135 87 196 87 303 0 68 -6 107 -24
160 -28 83 -90 201 -100 188 -4 -4 -24 -34 -45 -65 -45 -68 -105 -125 -141
-134 -53 -13 -119 72 -96 123 18 39 13 60 -21 88 -18 14 -41 33 -51 41 -16 13
-22 12 -58 -17 -49 -38 -59 -56 -52 -92 5 -26 3 -28 -18 -25 -18 2 -25 13 -35
52 -14 55 -41 88 -93 112 -20 9 -49 23 -66 30 -33 16 -33 16 -95 -75 -34 -51
-39 -104 -14 -152 12 -24 13 -34 3 -45 -18 -21 -32 -17 -51 15 -13 24 -25 31
-65 36 -26 3 -55 7 -63 8 -15 2 -37 -42 -47 -97 -5 -23 1 -34 31 -62 31 -28
36 -39 36 -78 0 -100 -84 -110 -259 -30 l-74 34 7 -80 c7 -83 35 -189 67 -252
40 -79 133 -167 254 -241 33 -20 73 -47 89 -60 l29 -24 -16 -48 c-33 -97 -15
-190 43 -220 40 -21 91 -13 177 25 34 16 64 26 67 22 3 -3 6 -19 6 -36 0 -73
68 -167 141 -195 20 -7 28 -19 34 -47 6 -36 54 -95 84 -105 10 -4 9 -12 -8
-39 -31 -51 -27 -86 13 -126 26 -26 42 -34 69 -34 20 0 39 -5 43 -11 6 -11
136 -391 435 -1279 l153 -456 -29 -38 c-41 -53 -47 -132 -14 -181 26 -37 76
-69 127 -80 37 -8 37 -10 17 -58 -27 -66 -13 -159 32 -209 15 -17 14 -22 -13
-76 -26 -51 -29 -67 -28 -147 0 -69 5 -101 22 -138 43 -94 145 -179 257 -211
46 -14 58 -38 77 -162 18 -114 8 -132 -132 -227 -89 -60 -166 -131 -186 -169
-16 -32 -18 -88 -4 -139 15 -54 73 -115 143 -148 l62 -30 1 -63 c1 -74 26
-131 82 -184 44 -42 71 -55 132 -63 l45 -6 -4 -125 c-4 -153 -14 -141 200
-248 100 -50 160 -87 173 -105 17 -22 21 -50 26 -147 4 -80 11 -125 21 -137
25 -31 53 -51 89 -62 19 -6 67 -35 105 -65 39 -30 95 -72 125 -93 53 -37 58
-38 138 -38 l83 0 39 41 c47 51 60 94 60 204 0 47 7 110 15 140 31 114 18 159
-68 236 -69 62 -87 98 -87 172 0 57 2 62 37 93 55 47 201 142 317 203 184 98
348 156 541 191 245 44 827 155 1025 195 369 75 1133 210 1186 210 31 0 36 23
25 122 -12 109 -34 202 -65 278 l-25 61 22 9 c12 4 56 20 98 35 141 49 277
142 360 248 52 65 51 77 -3 66 -70 -13 -191 -10 -248 7 -201 60 -259 268 -137
497 104 197 359 268 631 175 302 -103 496 -323 496 -562 0 -199 -99 -360 -302
-494 -150 -98 -170 -114 -205 -166 -35 -51 -58 -119 -68 -201 l-6 -50 17 33
c34 66 154 110 361 133 56 6 107 8 113 4 14 -8 -10 -52 -47 -86 -85 -79 -232
-152 -744 -368 -207 -88 -349 -163 -574 -306 -49 -31 -128 -75 -174 -98 -81
-40 -89 -42 -175 -42 -105 0 -172 24 -202 71 -26 39 -22 122 10 209 14 38 24
71 22 72 -2 2 -43 -8 -92 -22 -177 -51 -281 -122 -333 -226 -69 -138 -81 -347
-27 -461 15 -31 42 -70 61 -87 19 -17 35 -33 35 -36 0 -3 -16 -27 -35 -53
-140 -196 -203 -560 -129 -753 71 -188 86 -245 92 -346 6 -118 6 -119 88 -78
69 34 132 99 145 149 28 103 41 138 79 202 22 38 50 83 64 99 l24 30 6 -40
c44 -294 127 -439 310 -544 270 -154 475 -141 724 44 l72 54 157 -158 c95 -94
188 -177 232 -206 197 -129 414 -155 683 -81 l86 24 22 -31 c82 -111 282 -287
382 -338 l57 -29 54 20 c29 11 61 26 70 33 16 11 17 173 15 2542 -3 2380 -4
2527 -20 2475 -19 -62 -38 -181 -38 -235 0 -22 -4 -34 -10 -30 -5 3 -10 27
-10 53 0 99 -29 235 -67 312 -48 99 -113 160 -228 215 -153 74 -320 106 -685
130 -366 24 -549 76 -702 198 -51 40 -140 149 -130 158 4 4 106 25 227 48 211
38 226 40 362 34 159 -7 252 4 365 43 40 13 73 24 75 24 2 0 8 -11 13 -25 12
-32 120 -103 169 -111 55 -9 61 -12 61 -32 0 -10 9 -27 20 -37 19 -17 21 -17
60 0 39 17 43 17 103 1 72 -20 127 -45 127 -57 0 -4 -9 -13 -20 -19 -11 -6
-24 -19 -30 -30 -8 -16 -5 -25 19 -52 l30 -33 41 23 41 23 64 -21 c36 -12 75
-30 87 -40 22 -17 22 -19 5 -37 -9 -11 -17 -25 -17 -31 0 -16 41 -42 67 -42
l23 0 0 373 c0 347 -1 376 -19 413 -22 45 -46 68 -80 79 -13 4 -51 23 -84 42
-223 131 -438 179 -562 124 -90 -40 -132 -99 -143 -205 l-7 -61 -45 -11 c-25
-6 -66 -14 -92 -18 l-46 -7 -25 55 c-34 74 -41 129 -28 216 14 91 59 199 122
295 43 67 55 78 118 110 84 42 292 125 314 125 17 0 62 -50 72 -79 4 -12 -4
-39 -19 -67 -28 -53 -26 -85 8 -122 23 -26 130 -103 174 -126 51 -26 160 -135
172 -171 12 -36 35 -55 68 -55 10 0 37 -16 60 -36 l42 -36 0 87 0 86 -74 98
c-41 54 -102 130 -135 167 -33 38 -61 77 -61 88 0 10 36 56 80 102 43 47 87
98 97 114 9 17 22 30 28 30 6 0 22 -26 37 -58 l26 -57 1 66 c1 53 -3 72 -20
93 -21 27 -61 114 -204 451 -39 94 -208 487 -375 875 -166 388 -305 712 -308
720 -3 8 12 1 34 -17 37 -29 51 -57 157 -305 64 -150 200 -466 302 -703 102
-236 236 -548 298 -693 l112 -262 3 755 2 756 -75 126 c-41 70 -75 134 -75
144 0 29 28 42 90 41 l60 -1 0 255 0 254 -86 0 c-210 0 -401 -87 -465 -212
-37 -73 -19 -101 61 -97 48 3 53 0 92 -39 l42 -41 -30 -11 c-41 -16 -117 -5
-269 41 -71 21 -138 39 -150 39 -11 0 -31 6 -45 13 -24 12 -25 16 -25 117 0
100 -1 107 -30 149 -16 25 -50 56 -74 71 -40 23 -48 35 -82 115 -21 50 -38 96
-39 103 0 9 116 12 550 12 l550 0 0 859 0 860 -103 213 c-189 390 -473 885
-613 1070 -49 65 -49 66 36 88 81 21 214 72 292 112 93 48 162 106 189 161
l21 40 -59 -7 c-32 -3 -139 -9 -239 -12 -201 -7 -321 6 -460 52 -116 37 -324
150 -324 175 0 11 131 72 212 99 78 25 128 56 145 90 17 34 2 47 -65 55 -75 8
-232 45 -232 53 0 4 35 32 77 62 122 87 284 253 321 329 51 102 47 107 -50 61
-147 -70 -349 -110 -552 -110 -66 0 -116 4 -110 8 5 5 56 21 113 36 366 97
783 292 1071 501 31 23 50 31 60 25 36 -20 148 -50 206 -56 l64 -7 0 273 0
273 -187 -6 c-104 -4 -249 -13 -323 -22 -187 -20 -182 -21 -178 13 3 25 7 28
73 38 97 16 281 32 463 40 l152 7 0 870 0 870 -24 22 c-38 35 -51 98 -31 150
8 24 25 51 35 60 18 16 20 32 20 136 l0 118 -36 -6 -35 -6 3 49 c3 49 3 49 36
46 l32 -3 0 115 0 116 -31 0 c-21 0 -30 -4 -26 -13z m-278 -1029 c3 -13 37
-200 75 -417 49 -275 67 -398 60 -405 -24 -24 -44 12 -76 135 -143 556 -174
678 -174 687 0 13 23 19 72 21 31 1 39 -3 43 -21z m-2561 -1477 c9 -31 29
-421 23 -428 -4 -4 -12 -2 -18 4 -10 10 -90 433 -84 444 8 12 75 -4 79 -20z
m379 -2 c-7 -43 -94 -412 -99 -421 -4 -6 -10 -6 -16 0 -8 8 34 381 47 419 4
11 40 22 60 18 6 -1 9 -8 8 -16z m230 -959 c5 -4 7 -29 5 -56 l-3 -49 -50 -9
c-27 -5 -198 -9 -380 -9 -264 -1 -347 3 -413 15 -46 9 -90 22 -97 28 -13 11
-13 45 1 88 3 11 85 12 467 7 254 -4 466 -11 470 -15z m-624 -466 c176 -30
623 -88 814 -105 75 -7 137 -16 137 -21 0 -4 -64 -8 -142 -8 -237 -1 -587 -18
-683 -35 -49 -8 -112 -26 -139 -40 -28 -13 -55 -21 -62 -17 -47 27 -134 172
-134 223 0 33 9 41 39 34 13 -3 89 -17 170 -31z m-3704 -343 c205 -238 481
-516 679 -683 l30 -25 -23 -57 c-13 -31 -27 -56 -31 -56 -12 0 -199 198 -321
340 -231 269 -392 482 -459 605 l-32 60 34 -40 c18 -22 73 -87 123 -144z
m5195 21 c0 -17 -176 -60 -312 -77 l-48 -6 46 -47 c98 -102 218 -306 273 -465
29 -82 40 -147 25 -147 -3 0 -38 30 -78 66 -63 59 -298 247 -335 269 -16 9
-14 5 32 -62 58 -87 161 -333 145 -348 -3 -3 -52 30 -110 72 -162 121 -491
342 -510 343 -4 0 20 -37 52 -82 33 -46 60 -87 60 -92 0 -8 -38 23 -80 64 -3
3 -80 74 -172 157 -91 83 -164 154 -161 157 10 9 137 -45 238 -101 123 -68
327 -201 453 -295 52 -38 96 -67 99 -64 10 10 -54 128 -106 196 -57 76 -190
214 -276 289 l-60 51 42 -14 c142 -49 392 -205 547 -341 96 -85 98 -86 91 -54
-11 61 -85 197 -146 274 -55 68 -157 165 -234 222 l-30 22 170 2 c94 0 208 4
255 8 127 12 130 12 130 3z m-4283 -709 c-1 -208 12 -292 65 -439 33 -93 110
-231 176 -319 25 -33 111 -125 191 -205 80 -80 134 -137 119 -127 -205 131
-388 223 -523 263 -122 36 -257 38 -329 6 l-49 -22 7 -66 c21 -202 186 -416
491 -635 108 -78 106 -80 -27 -25 -124 52 -225 65 -330 44 -79 -17 -254 -93
-277 -122 -15 -18 28 -184 69 -266 61 -120 198 -225 363 -276 31 -10 57 -21
57 -25 0 -4 -24 -5 -53 -2 -62 6 -163 -17 -216 -49 -61 -38 -121 -99 -198
-201 l-73 -99 32 -46 c116 -165 264 -250 481 -277 56 -7 55 -13 -4 -26 -68
-16 -147 -60 -191 -107 -44 -48 -108 -176 -108 -215 0 -29 70 -120 129 -166
21 -17 66 -44 98 -59 54 -25 67 -27 181 -26 67 0 122 -1 122 -2 0 -2 -25 -14
-56 -28 -118 -54 -184 -134 -209 -252 -24 -114 -22 -122 45 -179 126 -106 232
-139 362 -112 41 8 110 31 152 50 42 20 76 33 76 30 0 -3 -20 -27 -45 -55 -24
-27 -59 -80 -77 -116 -31 -62 -33 -73 -33 -167 1 -103 34 -262 58 -277 20 -12
135 -21 226 -16 129 6 179 33 314 170 59 60 107 107 107 106 0 -2 -16 -41 -35
-86 -80 -190 -85 -299 -18 -431 l38 -76 60 -3 c188 -10 330 62 442 226 20 28
38 50 40 48 2 -2 -6 -41 -17 -87 -44 -168 -15 -274 107 -396 69 -69 75 -71
179 -52 143 26 252 115 329 266 l39 78 8 -55 c16 -111 30 -176 50 -222 36 -84
170 -187 225 -173 52 13 152 67 197 106 55 48 106 137 137 237 13 39 25 72 28
72 4 0 26 -41 50 -92 102 -211 226 -324 371 -337 61 -6 65 -7 65 -31 0 -22 -5
-25 -39 -28 -54 -5 -161 15 -205 38 -60 31 -118 88 -170 166 l-48 74 -43 -57
c-87 -116 -178 -176 -317 -209 l-71 -17 -57 34 c-78 47 -166 143 -194 212
l-23 56 -61 -65 c-87 -94 -181 -136 -332 -149 l-70 -6 -106 104 c-105 104
-159 182 -159 234 0 13 -4 23 -9 23 -5 0 -46 -18 -91 -39 -45 -22 -107 -45
-138 -52 -67 -14 -166 -8 -206 12 -58 28 -118 159 -139 301 -9 63 -14 78 -27
75 -8 -3 -55 -17 -105 -32 -76 -23 -109 -28 -215 -29 -185 -2 -194 6 -247 203
-24 91 -34 214 -23 291 l5 34 -95 12 c-195 25 -371 115 -410 210 -15 37 32
267 70 346 11 23 19 42 17 43 -1 1 -31 17 -66 34 -36 18 -83 45 -105 61 -56
38 -134 123 -151 165 -13 31 -13 41 9 117 31 104 58 167 96 222 l29 44 -65 38
c-125 73 -227 185 -268 295 -17 45 -17 47 4 90 40 79 108 165 190 241 44 41
80 78 80 82 0 3 -27 39 -59 79 -120 146 -210 342 -198 429 3 23 14 53 24 67
50 66 214 145 343 163 l79 12 -79 83 c-91 95 -155 195 -201 308 -26 65 -33 95
-33 157 -1 93 15 116 102 144 76 25 306 26 400 1 35 -9 68 -17 72 -17 5 0 -18
51 -50 113 -66 125 -94 197 -115 300 -28 127 -16 306 30 464 9 29 17 53 19 53
2 0 3 -84 3 -187z m-1171 -300 c221 -156 337 -230 674 -431 13 -8 12 -16 -3
-65 -10 -32 -21 -57 -26 -57 -4 0 -32 18 -62 40 -30 21 -65 47 -79 57 -369
265 -682 521 -797 652 -29 33 -53 62 -53 65 0 4 56 -38 124 -93 68 -54 168
-130 222 -168z m-176 -752 c219 -126 419 -226 580 -292 128 -52 129 -54 96
-133 l-15 -37 -119 60 c-282 144 -659 392 -829 546 -29 26 -53 51 -53 56 0 5
34 -13 76 -42 41 -28 160 -99 264 -158z m2284 97 c13 -78 85 -278 140 -386
115 -223 262 -422 447 -604 60 -60 108 -108 105 -108 -2 0 -38 16 -80 36 -118
56 -165 57 -312 2 -65 -25 -138 -51 -161 -58 -24 -7 -43 -16 -43 -19 0 -3 7
-35 15 -70 9 -35 22 -107 31 -160 13 -83 19 -100 46 -128 33 -34 155 -101 221
-123 20 -6 37 -16 37 -22 0 -6 -8 -7 -17 -4 -34 14 -221 7 -258 -8 -31 -13
-263 -239 -273 -266 -3 -8 137 -178 203 -246 52 -53 121 -69 270 -61 58 2 105
2 105 -2 0 -4 -17 -15 -37 -25 -125 -59 -243 -158 -262 -219 -5 -18 -12 -102
-15 -188 l-6 -155 162 -37 c90 -21 177 -37 194 -37 43 0 143 54 208 112 30 26
57 48 61 48 3 0 -8 -20 -25 -45 -45 -65 -90 -165 -90 -200 0 -17 16 -66 35
-110 19 -44 40 -102 47 -128 l12 -49 41 6 c22 3 92 11 155 17 89 9 123 16 151
34 32 21 105 120 139 187 7 16 15 26 17 24 2 -2 -4 -46 -13 -98 -11 -62 -14
-110 -10 -143 7 -47 14 -56 119 -157 62 -59 119 -107 127 -107 8 0 69 31 135
67 110 61 122 71 143 114 13 26 26 75 29 108 3 33 9 63 13 65 4 3 20 -31 36
-76 41 -117 66 -141 206 -194 64 -24 130 -51 147 -59 16 -9 32 -16 35 -16 2 0
21 27 42 61 20 34 59 89 86 122 l50 62 -5 70 c-3 43 -15 94 -32 134 -14 35
-24 65 -22 68 10 9 99 -145 114 -197 22 -75 7 -129 -51 -190 -51 -55 -82 -97
-124 -171 l-32 -57 -85 44 c-46 23 -122 55 -169 69 -90 28 -137 58 -162 107
l-15 29 -27 -53 c-26 -51 -30 -54 -95 -75 -37 -12 -106 -47 -152 -77 -47 -31
-89 -56 -94 -56 -5 0 -27 24 -50 54 -23 29 -77 87 -120 127 -85 80 -111 120
-111 170 l0 32 -24 -26 c-37 -40 -75 -54 -171 -61 -49 -4 -130 -16 -178 -28
-49 -11 -90 -18 -91 -16 -2 1 -15 43 -30 93 -16 49 -43 120 -62 157 -36 71
-41 106 -23 140 15 28 8 31 -34 13 -49 -20 -71 -19 -169 9 -47 14 -125 30
-174 36 -49 7 -98 14 -109 16 -19 3 -20 10 -19 221 1 124 6 229 12 243 6 14
33 47 61 75 28 27 51 53 51 57 0 4 -19 8 -42 8 -74 0 -138 38 -192 114 -26 37
-83 102 -126 145 l-78 77 64 70 c36 38 86 98 111 134 88 123 123 149 200 151
21 0 31 3 23 6 -36 14 -90 67 -108 106 -11 23 -25 84 -31 135 -7 51 -23 128
-36 170 -13 42 -21 80 -17 83 4 4 52 24 107 44 55 21 133 53 173 72 40 19 91
37 113 40 21 3 39 7 39 9 0 2 -23 32 -51 66 -178 220 -304 484 -359 750 -12
56 -23 113 -26 126 -2 12 0 22 5 22 4 0 11 -19 15 -42z m4455 -145 c130 -151
214 -438 240 -821 13 -183 15 -559 3 -566 -5 -3 -30 37 -55 88 -78 157 -228
366 -263 366 -6 0 -16 -40 -22 -88 -18 -132 -59 -287 -101 -377 -37 -80 -96
-159 -111 -150 -4 3 -11 40 -14 82 -25 284 -85 482 -173 569 l-36 36 -17 -55
c-22 -71 -52 -121 -144 -244 -113 -151 -373 -397 -384 -363 -2 6 1 31 7 54 25
99 26 256 2 256 -5 0 -35 -33 -67 -72 -73 -90 -144 -159 -209 -202 -54 -36
-141 -70 -156 -61 -5 3 9 34 31 69 59 93 81 149 87 225 l6 68 -94 6 c-151 10
-279 49 -396 120 -64 38 -68 57 -14 57 51 0 218 44 304 80 147 62 303 178 358
266 27 45 36 36 16 -15 -28 -69 -88 -154 -161 -227 -69 -68 -188 -154 -213
-154 -7 0 -13 -4 -13 -9 0 -25 197 -34 238 -12 13 7 26 10 29 7 3 -3 1 -65 -4
-138 -6 -73 -8 -135 -6 -138 3 -3 57 49 121 115 118 121 215 249 227 298 4 15
11 30 16 32 19 13 33 -86 34 -242 0 -90 2 -163 5 -163 7 1 153 199 222 301 71
107 142 238 159 297 7 23 16 42 20 42 11 0 88 -110 139 -196 47 -80 94 -198
120 -299 10 -38 21 -63 24 -55 25 68 106 508 106 576 0 22 3 44 7 47 12 12
124 -169 228 -370 33 -62 63 -113 67 -113 5 0 6 21 4 48 -3 26 -8 85 -11 132
-15 226 -71 551 -121 712 -20 63 -55 148 -92 221 -2 4 1 7 6 7 6 0 29 -21 51
-47z m-7147 -657 c194 -55 793 -210 922 -239 38 -9 72 -19 77 -24 11 -11 -12
-104 -27 -110 -20 -7 -426 119 -689 215 -285 104 -534 212 -487 212 6 0 98
-24 204 -54z m198 -841 c302 -22 661 -55 695 -64 29 -7 30 -9 27 -62 -2 -30
-7 -58 -11 -62 -8 -8 -726 107 -916 148 -141 30 -195 44 -195 50 0 10 201 5
400 -10z m6091 -465 l65 -125 -24 -45 c-28 -53 -25 -94 15 -204 14 -39 22 -71
17 -73 -15 -5 -297 -186 -355 -227 -91 -66 -189 -146 -189 -156 0 -4 23 -34
51 -64 47 -52 73 -67 81 -48 7 16 260 232 272 232 7 0 16 -3 19 -7 4 -3 -77
-88 -180 -188 l-188 -182 88 -57 c48 -31 90 -56 94 -56 5 1 22 13 39 28 217
189 247 213 260 208 10 -4 -37 -56 -152 -169 l-166 -162 97 -43 c54 -24 101
-39 105 -35 3 4 37 44 76 88 170 196 240 270 257 273 11 2 18 -1 16 -7 -2 -5
-53 -70 -114 -142 -60 -73 -118 -142 -127 -154 l-17 -22 132 -22 132 -22 25
28 c14 16 40 46 57 68 l33 39 70 -23 c63 -20 72 -26 90 -61 31 -61 28 -67 -40
-75 -35 -4 -60 -12 -60 -18 0 -7 9 -59 20 -116 11 -58 17 -107 13 -111 -5 -4
-44 -19 -88 -35 -44 -15 -109 -40 -144 -56 -35 -16 -68 -29 -73 -29 -4 0 -32
19 -61 43 -83 67 -141 92 -217 92 -55 0 -73 -5 -115 -31 -167 -103 -303 -433
-368 -896 -12 -80 55 -18 111 104 14 32 30 58 34 58 12 0 10 -134 -2 -166 -6
-15 -8 -29 -5 -32 11 -11 88 75 128 143 l42 70 3 -77 c2 -43 -2 -87 -8 -98
-17 -31 13 -26 53 10 49 43 89 125 142 295 47 149 92 265 104 265 11 0 56
-305 55 -380 -1 -109 -39 -175 -121 -209 l-28 -11 -1 -128 c-1 -175 -45 -352
-114 -462 -42 -68 -44 -83 -15 -118 30 -35 30 -36 6 -132 -16 -69 -20 -76 -47
-81 -67 -15 -99 -10 -126 19 -42 43 -51 77 -57 227 l-7 140 -37 -77 c-61 -127
-83 -254 -57 -324 6 -15 8 -29 6 -31 -10 -10 -301 -60 -309 -53 -15 13 -36
165 -47 331 -12 191 -13 805 -3 2322 l6 1087 391 -2 391 -3 66 -125z m-5312
-218 c5 -10 11 -40 13 -68 l3 -49 -220 -9 c-147 -6 -309 -4 -490 3 -278 13
-335 18 -335 31 0 12 159 30 755 84 138 13 253 24 257 25 4 0 12 -7 17 -17z
m164 -509 c20 -52 23 -50 -113 -86 -190 -52 -611 -128 -695 -127 -53 1 113 64
510 193 189 61 263 81 271 73 6 -6 18 -30 27 -53z m217 -597 c16 -25 30 -51
30 -59 0 -22 -488 -253 -617 -292 -13 -3 -23 -4 -23 -1 0 10 195 152 340 247
80 52 163 107 185 122 22 14 43 26 47 26 4 1 21 -19 38 -43z m5532 -418 c10
-8 23 -47 33 -100 26 -143 50 -209 90 -248 34 -33 40 -35 103 -35 71 0 92 -7
92 -31 0 -17 -124 -20 -184 -3 -51 14 -62 2 -59 -64 3 -73 11 -77 170 -77 111
0 135 -3 140 -15 3 -9 3 -18 1 -21 -3 -2 -69 -7 -146 -11 l-142 -6 0 -31 c0
-52 23 -73 98 -89 37 -9 110 -19 162 -23 88 -6 116 -16 104 -36 -13 -21 -185
-3 -267 28 -65 24 -101 19 -136 -21 -17 -20 -31 -40 -31 -45 0 -6 -7 -10 -15
-10 -20 0 -19 13 5 59 58 114 47 300 -39 653 -17 69 -31 129 -31 132 0 11 36
6 52 -6z m-5086 -34 c24 -20 44 -40 44 -44 0 -33 -417 -380 -672 -560 -127
-89 -34 23 321 387 135 139 250 253 254 253 5 0 29 -16 53 -36z m-1755 -124
c10 -25 18 -70 18 -101 1 -47 -4 -63 -28 -97 -39 -53 -46 -56 -94 -42 -76 21
-127 87 -143 187 l-6 42 53 15 c105 30 164 44 173 42 5 -1 17 -22 27 -46z
m2327 -237 c23 -8 42 -19 42 -25 0 -16 -106 -193 -178 -298 -61 -89 -216 -284
-297 -375 -31 -35 -35 -37 -29 -15 8 32 118 246 269 523 93 173 121 217 134
211 9 -3 35 -13 59 -21z m719 -286 c12 -8 1 -62 -43 -202 -27 -85 -213 -475
-227 -475 -11 0 -2 46 55 270 27 107 57 243 67 301 10 59 21 111 24 116 6 10
105 2 124 -10z m793 -164 c0 -194 -34 -490 -55 -486 -19 3 -63 264 -80 470 -7
81 -6 83 16 92 13 5 45 10 72 10 l47 1 0 -87z m995 -1341 c-6 -5 -39 -19 -75
-32 -118 -42 -248 -112 -300 -162 -75 -72 -67 -83 33 -46 141 53 286 88 363
89 67 1 144 -15 144 -29 -1 -4 -28 -27 -61 -52 -68 -50 -139 -125 -139 -147 0
-11 9 -13 48 -6 26 4 106 8 177 7 104 0 140 -4 179 -20 27 -10 51 -24 53 -30
2 -6 -95 -30 -252 -62 -140 -29 -303 -68 -361 -87 -59 -19 -109 -35 -111 -35
-9 0 8 94 28 158 12 34 32 76 46 93 14 16 24 32 21 34 -7 7 -202 -62 -291
-103 -106 -50 -192 -100 -271 -160 -70 -54 -70 -50 5 106 105 218 291 352 629
456 117 36 152 43 135 28z m-991 -1024 c4 -10 11 -18 15 -18 3 0 38 35 77 78
74 80 171 146 178 120 2 -7 8 -49 14 -93 6 -44 19 -100 30 -124 l20 -43 18 28
c35 56 128 174 137 174 5 0 6 -8 2 -17 -35 -82 -105 -270 -119 -323 -10 -36
-20 -69 -23 -73 -13 -21 -94 135 -129 247 -10 31 -23 56 -30 56 -7 0 -27 -12
-46 -27 -60 -49 -193 -168 -205 -183 -22 -28 -28 19 -27 200 1 177 21 317 55
395 12 27 14 7 19 -175 3 -113 10 -213 14 -222z m2821 -738 c-8 -113 -22 -187
-41 -217 -8 -12 -14 -25 -14 -27 0 -16 76 44 139 109 40 41 75 75 77 75 24 0
-75 -196 -130 -257 -82 -91 -186 -144 -321 -162 -43 -6 -80 -9 -82 -7 -2 2 29
37 70 78 148 151 238 316 283 523 l6 30 10 -25 c6 -15 7 -64 3 -120z m-1572
-467 c49 -79 61 -163 30 -202 -15 -18 -35 -23 -113 -31 -136 -14 -364 -17
-368 -6 -2 6 83 30 188 55 l190 45 0 69 c0 52 4 75 17 89 23 25 30 23 56 -19z
m1977 -474 c-63 -247 -160 -536 -395 -1174 -83 -225 -142 -401 -161 -484 -18
-77 -20 -238 -3 -306 33 -139 116 -244 225 -284 61 -23 177 -28 253 -10 24 5
46 7 49 5 9 -10 -52 -90 -124 -161 -87 -87 -164 -139 -263 -179 -67 -26 -88
-30 -181 -30 -152 -1 -254 35 -410 145 -71 50 -250 221 -250 238 0 11 36 21
79 21 26 0 47 -12 101 -59 92 -79 201 -145 301 -183 71 -26 98 -31 179 -32 90
-1 99 1 165 34 38 19 71 40 72 45 2 6 -22 25 -52 43 -123 74 -222 190 -272
319 -22 58 -26 83 -26 173 1 76 6 123 21 170 27 88 160 440 327 865 26 66 92
235 147 375 142 361 218 551 225 563 16 26 13 -16 -7 -94z m-1506 -511 c-202
-208 -313 -360 -410 -563 -82 -172 -116 -291 -141 -492 -9 -73 -21 -133 -25
-133 -15 0 -49 88 -60 156 -12 77 3 214 34 322 18 63 19 75 7 83 -26 16 -79 9
-190 -27 -61 -19 -112 -34 -114 -32 -2 2 78 69 178 150 100 80 272 219 382
309 210 170 453 359 463 359 3 0 -53 -60 -124 -132z"/>
</g>
</svg>
