<?xml version="1.0" standalone="no"?>
<!DOCTYPE svg PUBLIC "-//W3C//DTD SVG 20010904//EN"
 "http://www.w3.org/TR/2001/REC-SVG-20010904/DTD/svg10.dtd">
<svg version="1.0" xmlns="http://www.w3.org/2000/svg"
 width="1119.000000pt" height="2239.000000pt" viewBox="0 0 1119.000000 2239.000000"
 preserveAspectRatio="xMidYMid meet">

<g transform="translate(0.000000,2239.000000) scale(0.100000,-0.100000)"
fill="#000000" stroke="none">
<path d="M0 20313 c0 -42 2 -74 5 -72 5 5 55 136 55 144 0 3 -13 5 -30 5 l-30
0 0 -77z"/>
<path d="M90 20250 c-30 -11 -62 -20 -72 -20 -14 0 -18 -8 -18 -35 0 -31 3
-35 26 -35 24 0 25 -2 22 -47 -3 -43 -5 -48 -26 -46 -22 3 -22 1 -22 -122 0
-69 4 -125 8 -125 15 0 42 -70 42 -109 0 -24 -9 -52 -25 -75 l-25 -37 0 -878
0 -877 188 -17 c200 -18 393 -44 430 -58 24 -9 31 -46 9 -55 -7 -2 -101 6
-208 20 -107 14 -234 28 -284 31 -50 3 -100 8 -112 11 l-23 4 0 -271 0 -272
49 6 c28 3 73 16 102 28 33 15 56 19 64 13 6 -5 47 -35 90 -68 248 -187 612
-360 1040 -493 l90 -28 -90 -3 c-174 -7 -425 44 -581 117 -48 23 -89 39 -92
37 -2 -3 -2 -20 2 -38 14 -76 148 -238 304 -370 54 -44 98 -84 100 -88 3 -8
-112 -30 -203 -37 -38 -3 -76 -10 -82 -16 -43 -33 20 -92 162 -152 109 -45
185 -88 185 -103 0 -13 -153 -110 -222 -141 -173 -79 -319 -106 -528 -97 -80
3 -185 12 -235 20 -49 8 -91 13 -94 11 -12 -12 38 -91 83 -132 77 -69 311
-174 443 -199 40 -8 41 -16 5 -63 -33 -43 -28 -36 -173 -252 -120 -179 -291
-459 -373 -610 l-46 -86 0 -249 0 -249 51 104 c48 98 137 211 166 211 6 0 -7
-34 -29 -75 -64 -122 -125 -322 -169 -550 -14 -73 -19 -144 -19 -264 l0 -165
93 155 c108 180 160 259 168 259 4 0 10 -32 14 -72 14 -150 79 -526 95 -556 4
-8 12 11 19 44 17 74 69 198 120 283 44 75 148 211 160 211 5 0 16 -28 26 -61
31 -111 143 -305 291 -505 l59 -79 6 135 c4 75 14 164 23 199 9 34 16 65 16
67 0 2 4 4 8 4 5 0 14 -17 20 -39 24 -80 150 -245 291 -381 l46 -45 -3 149
c-4 142 -3 148 15 141 77 -32 123 -38 208 -26 l85 13 -54 33 c-137 82 -261
202 -328 316 -41 69 -52 114 -15 64 34 -46 127 -133 182 -170 125 -83 314
-157 455 -177 44 -7 80 -15 80 -19 0 -4 -13 -17 -30 -29 -82 -59 -269 -115
-421 -126 l-92 -7 6 -76 c6 -84 20 -123 78 -219 22 -36 38 -67 35 -69 -2 -2
-32 6 -67 17 -117 39 -233 131 -335 267 -30 40 -59 73 -64 73 -18 0 -21 -90
-6 -205 8 -65 13 -121 11 -123 -9 -10 -65 36 -171 142 -168 168 -298 343 -346
466 -12 33 -27 60 -31 60 -18 0 -68 -64 -96 -124 -42 -86 -77 -229 -97 -392
-9 -76 -20 -143 -24 -147 -13 -15 -86 88 -120 170 -36 86 -75 260 -86 383 -3
44 -10 80 -14 80 -13 0 -106 -106 -160 -182 l-50 -72 0 -303 0 -303 868 -2
867 -3 3 -1667 2 -1668 -22 -4 c-13 -3 -189 -26 -393 -51 -203 -26 -382 -49
-397 -52 -44 -9 -38 -30 49 -180 51 -87 64 -123 44 -123 -5 0 -19 17 -32 38
-12 20 -37 56 -55 78 -27 34 -46 85 -103 278 -64 218 -69 240 -61 289 4 29 4
72 0 97 -5 25 -9 48 -10 53 0 4 -20 26 -44 50 l-45 42 -2 94 c-2 93 -1 95 27
118 42 33 150 76 296 117 70 20 130 36 135 36 4 -1 21 -11 37 -24 l28 -23 -35
-104 c-19 -57 -38 -119 -42 -136 -3 -18 -11 -36 -17 -39 -5 -4 -29 12 -51 34
l-42 41 -58 -110 c-32 -61 -57 -112 -55 -114 16 -13 74 -36 106 -41 139 -22
262 138 303 391 10 66 18 86 45 115 43 47 54 71 54 119 0 86 -85 134 -184 104
-32 -10 -106 -17 -202 -20 l-150 -4 -13 82 c-17 109 -47 202 -143 444 -114
286 -139 402 -103 480 l13 30 1 -41 c2 -87 28 -130 132 -217 64 -54 85 -85 91
-137 4 -33 71 -59 155 -59 52 -1 66 3 92 24 64 54 66 164 7 339 -31 89 -36
117 -36 198 -1 51 -7 110 -14 130 l-14 38 55 44 c30 25 53 48 51 53 -2 4 -43
21 -92 36 -95 31 -96 33 -71 100 6 15 1 17 -38 17 -41 0 -47 3 -67 35 -29 46
-111 119 -164 145 -84 40 -220 45 -308 11 -21 -8 -19 -11 30 -32 29 -12 51
-26 49 -32 -1 -5 -32 -17 -67 -27 -66 -17 -293 -96 -319 -110 -9 -5 15 -14 66
-25 78 -17 112 -30 103 -38 -12 -10 -132 -86 -192 -122 -37 -22 -68 -43 -68
-47 0 -4 11 -10 25 -14 31 -8 31 -15 0 -44 l-25 -23 0 -433 0 -433 52 -88 c28
-48 60 -109 70 -136 42 -110 9 -211 -84 -258 l-38 -19 0 -120 c0 -80 4 -120
11 -120 6 0 47 9 92 21 44 11 91 18 103 15 35 -9 153 -144 220 -253 53 -85 62
-106 67 -160 7 -80 31 -122 85 -148 23 -12 48 -27 56 -35 20 -22 52 -114 92
-266 28 -106 34 -148 32 -206 -2 -57 -6 -73 -18 -73 -12 0 -15 17 -16 90 -1
51 -8 110 -16 135 -18 53 2 52 -255 16 l-165 -23 -8 21 c-5 12 -16 47 -26 79
-12 41 -24 61 -38 67 -14 5 -32 35 -54 89 -48 116 -91 175 -130 179 -31 3 -32
2 -32 -37 0 -31 3 -39 14 -35 16 6 40 -31 31 -46 -9 -14 -32 -12 -38 3 -3 6
-6 -39 -6 -101 -1 -75 4 -124 13 -146 27 -64 29 -109 7 -138 -20 -25 -21 -39
-21 -277 0 -138 2 -251 5 -251 3 0 33 23 67 51 41 34 66 48 77 43 43 -17 107
-34 134 -34 38 0 117 37 117 55 0 8 4 16 8 19 5 3 82 -53 173 -124 90 -71 172
-130 182 -130 18 0 77 56 77 74 0 6 -17 27 -37 48 -36 37 -37 40 -23 66 20 34
86 72 128 72 21 0 46 -10 67 -26 19 -14 42 -24 52 -22 16 3 63 61 63 78 0 4
-18 19 -40 34 -22 14 -40 33 -40 40 0 8 12 29 27 46 26 32 28 32 90 26 61 -6
64 -6 73 19 18 47 12 61 -30 78 -44 17 -49 34 -22 65 15 18 55 26 292 60 151
21 278 36 282 33 11 -10 -19 -196 -43 -271 -29 -89 -64 -154 -115 -222 -54
-69 -99 -105 -195 -157 -161 -86 -325 -118 -671 -131 -134 -5 -294 -16 -356
-25 -115 -16 -261 -54 -313 -80 l-29 -16 0 -1226 0 -1227 114 -316 c326 -897
440 -1224 457 -1309 17 -89 7 -252 -21 -321 -47 -117 -150 -231 -277 -306
l-65 -38 24 -18 c42 -33 107 -60 172 -71 151 -26 339 48 541 213 l71 58 52
-10 c29 -6 52 -16 52 -23 0 -17 -117 -127 -205 -192 -308 -232 -607 -221 -873
31 l-42 40 0 -214 0 -214 64 63 63 63 72 -22 c172 -51 340 -64 474 -35 149 31
307 136 506 335 l117 117 58 -43 c130 -99 272 -161 390 -171 137 -11 257 24
414 120 96 58 158 124 202 214 34 68 80 235 80 289 0 51 14 48 53 -10 53 -80
96 -170 113 -239 22 -84 36 -109 86 -150 42 -34 118 -77 136 -77 5 0 12 40 15
89 7 95 39 211 88 317 46 100 62 190 55 319 -9 179 -60 347 -145 475 l-41 61
49 48 c32 31 55 66 71 106 47 121 26 328 -46 451 -52 91 -186 179 -332 220
-34 9 -64 15 -66 13 -3 -2 6 -35 20 -74 30 -91 31 -158 2 -201 -33 -49 -80
-67 -184 -72 -86 -4 -95 -2 -156 27 -35 16 -145 84 -244 149 -253 167 -300
194 -464 261 -431 176 -703 302 -791 367 -50 37 -99 100 -99 128 0 20 17 19
195 -10 175 -29 259 -66 286 -128 16 -35 2 94 -16 143 -25 73 -78 133 -171
197 -138 93 -244 200 -292 292 -22 42 -43 91 -47 107 -16 65 -22 163 -13 220
27 174 187 349 406 444 236 103 467 98 635 -13 67 -45 108 -93 144 -173 24
-51 27 -71 27 -163 1 -92 -2 -111 -23 -150 -63 -120 -214 -176 -409 -150 -46
6 -86 9 -88 7 -7 -7 54 -93 97 -136 84 -84 193 -147 343 -200 48 -17 92 -34
97 -37 5 -3 0 -23 -11 -44 -37 -72 -71 -212 -77 -311 l-6 -95 109 -18 c245
-40 1013 -200 1890 -394 l310 -69 185 -101 c213 -116 381 -197 494 -238 69
-25 94 -29 185 -29 103 0 107 1 220 49 253 106 243 103 422 120 104 10 185 23
215 34 26 11 96 53 155 95 99 69 141 90 289 141 109 39 165 124 157 241 l-4
66 63 66 c35 36 107 123 159 192 l96 126 69 -4 c67 -3 70 -2 99 29 46 49 74
153 75 275 0 119 -11 146 -75 189 -25 17 -47 34 -48 38 -2 5 -15 22 -28 37
-13 16 -24 36 -24 44 0 32 -55 177 -105 278 -115 234 -284 413 -483 513 -29
15 -94 40 -145 56 l-92 30 -38 61 c-21 34 -36 63 -34 65 2 2 52 -14 112 -36
59 -22 109 -40 111 -40 2 0 4 115 4 255 0 140 -2 255 -5 255 -3 0 -50 -23
-105 -50 -55 -28 -102 -50 -105 -50 -12 0 -3 30 35 118 22 51 40 94 40 97 0 3
-124 5 -275 5 -151 0 -275 -3 -275 -7 0 -5 15 -53 34 -108 18 -55 30 -101 26
-103 -5 -2 -58 20 -120 48 -61 27 -114 50 -116 50 -2 0 -4 -115 -4 -255 0
-140 2 -255 4 -255 2 0 55 18 116 40 61 22 116 40 122 40 5 0 -8 -32 -29 -72
l-40 -71 -94 -27 c-357 -101 -646 -377 -748 -715 -21 -70 -22 -71 -89 -111
-101 -60 -107 -77 -107 -294 0 -186 10 -241 46 -260 10 -6 49 -13 87 -17 37
-3 74 -9 83 -14 18 -9 99 -158 99 -181 0 -17 -138 -109 -215 -143 -223 -99
-421 -104 -741 -19 -197 52 -462 153 -648 245 -300 150 -404 266 -355 396 13
36 58 83 80 83 10 0 34 -30 61 -77 54 -93 134 -203 147 -203 6 0 8 33 4 85 -4
62 -2 89 7 100 12 14 17 12 43 -20 51 -62 278 -228 292 -213 2 2 -7 39 -20 81
-28 87 -47 231 -39 292 12 92 28 157 40 162 7 3 26 -4 41 -15 109 -77 240
-116 368 -110 99 5 145 22 222 85 40 33 110 129 101 138 -2 3 -22 0 -43 -6
-92 -26 -174 11 -215 98 -30 63 -39 242 -19 388 19 137 17 341 -5 430 -33 136
-121 273 -224 349 -120 88 -297 151 -505 182 -61 9 -114 18 -117 21 -2 2 13
20 35 39 l40 35 -30 -5 c-300 -53 -483 -10 -755 176 -47 32 -95 66 -107 75
l-23 18 20 549 c11 301 23 552 25 557 9 14 76 29 179 39 75 7 109 16 141 35
46 27 96 79 120 125 9 17 20 30 24 30 12 0 91 -60 154 -116 56 -50 132 -78
246 -89 l74 -7 -6 -347 c-6 -301 -5 -354 9 -401 33 -112 113 -194 269 -273 28
-14 64 -40 80 -57 34 -36 69 -53 94 -45 9 3 30 28 46 55 22 38 56 70 138 131
214 159 239 194 245 334 4 81 -21 404 -34 448 -3 9 -2 17 3 17 4 0 23 -66 42
-148 50 -218 148 -613 160 -644 36 -96 281 -221 456 -234 l70 -6 52 47 c63 55
154 190 189 277 34 85 42 192 20 285 -15 70 -68 226 -139 410 -19 51 -33 93
-31 93 2 0 87 -165 187 -368 l184 -367 53 -32 c89 -54 264 -93 416 -93 75 0
85 3 114 26 68 57 136 242 147 396 13 189 -29 278 -376 798 -32 47 -61 91 -65
98 -23 39 22 -10 186 -200 100 -117 194 -226 209 -243 14 -16 69 -79 120 -140
210 -245 231 -261 379 -272 112 -8 309 28 345 63 19 20 33 71 47 182 20 155
-9 290 -83 384 -42 53 -183 178 -372 329 -83 67 -159 129 -167 137 -31 31 92
-46 323 -202 384 -260 439 -287 594 -287 83 -1 371 55 384 75 15 20 19 112 9
189 -16 112 -62 254 -121 366 -27 52 -49 95 -49 96 0 1 64 5 143 9 240 11 371
47 533 148 83 51 85 54 80 86 -7 45 -85 198 -149 291 -29 41 -84 109 -124 150
-40 41 -71 77 -69 78 2 2 36 13 76 24 171 47 349 162 478 308 115 130 112 122
62 181 -70 83 -204 177 -388 269 -45 23 -82 45 -82 49 0 4 24 16 53 26 156 55
377 190 501 306 85 80 168 178 163 193 -9 28 -228 131 -417 195 -96 33 -259
76 -370 98 -22 5 -19 8 30 36 185 103 325 213 516 403 129 128 304 338 304
364 0 13 -91 49 -192 76 -132 36 -281 48 -425 35 -124 -11 -347 -45 -378 -56
-32 -13 -12 12 73 89 154 138 354 375 491 580 56 82 141 244 165 315 l15 42
-139 0 c-173 0 -332 -20 -503 -64 -113 -30 -192 -56 -429 -142 -51 -18 -47 -6
10 36 106 78 295 245 386 341 265 279 380 518 393 821 5 118 -10 358 -26 401
-6 16 -16 10 -71 -40 -35 -32 -95 -85 -135 -118 -39 -33 -112 -94 -161 -136
-187 -158 -806 -648 -1154 -913 -176 -133 -184 -140 -210 -162 -14 -12 -38
-30 -55 -40 -29 -17 19 34 415 441 400 411 677 708 788 843 190 233 281 512
252 772 -26 233 -119 456 -289 698 -29 39 -53 72 -55 72 -3 0 -10 -17 -16 -37
-7 -21 -37 -86 -66 -146 -179 -361 -604 -960 -999 -1407 -200 -225 -513 -529
-533 -516 -5 3 -17 26 -27 52 l-18 46 -36 -74 c-103 -208 -397 -586 -639 -821
-50 -49 -97 -87 -103 -85 -7 2 -18 22 -26 43 -7 22 -17 43 -22 48 -4 4 -35
-25 -69 -65 -65 -78 -151 -163 -296 -293 -49 -44 -121 -109 -160 -145 -39 -36
-161 -144 -270 -240 -109 -96 -243 -214 -297 -262 -295 -259 -382 -352 -443
-474 -46 -92 -60 -162 -54 -270 9 -163 59 -256 227 -424 80 -80 127 -136 151
-180 33 -61 35 -71 35 -155 0 -83 -3 -96 -38 -169 -81 -171 -185 -284 -312
-339 -228 -100 -515 -82 -762 48 -122 64 -250 168 -241 195 2 6 38 26 81 44
214 93 359 228 405 376 27 86 21 224 -13 330 -15 47 -36 103 -48 125 l-20 40
-25 -35 c-57 -78 -208 -217 -268 -245 -86 -42 -187 -46 -272 -12 -79 32 -173
96 -280 188 -89 77 -92 89 -20 89 73 0 185 31 277 76 73 36 110 62 165 118 67
65 156 185 156 208 0 5 -13 7 -30 3 -54 -12 -302 -9 -380 4 -168 29 -313 110
-396 223 -120 163 -180 398 -143 556 19 78 102 242 166 327 125 165 316 340
523 479 l84 58 71 -21 c38 -12 91 -21 117 -21 48 0 56 4 234 129 57 40 69 44
150 52 97 10 234 -1 301 -25 196 -69 286 -217 286 -468 0 -60 3 -108 8 -108 4
0 30 22 57 48 67 65 93 136 100 267 6 124 -9 200 -51 262 -28 41 -54 65 -142
127 -11 8 -17 17 -13 21 16 17 234 -125 362 -235 117 -101 248 -142 451 -142
257 0 364 57 458 247 36 72 80 201 92 270 l7 40 -29 -40 c-95 -129 -356 -244
-527 -233 -80 6 -154 34 -416 162 -85 41 -208 92 -272 113 -65 21 -118 41
-118 45 0 3 16 16 36 27 183 108 448 71 702 -97 l55 -37 29 35 c46 54 134 208
165 285 24 61 27 84 27 185 1 107 -1 119 -28 175 -48 98 -142 183 -277 249
-135 66 -194 80 -303 71 l-82 -6 -67 51 c-37 29 -91 65 -119 79 -52 27 -70 53
-50 73 6 6 50 14 99 19 298 27 522 122 784 333 143 114 182 203 183 416 1 152
-18 278 -65 424 -16 49 -29 111 -29 138 0 41 5 54 34 86 30 32 40 37 78 36 24
0 62 -10 84 -22 39 -20 205 -83 389 -147 44 -16 90 -37 102 -48 25 -22 57 -92
78 -173 33 -125 14 -192 -95 -340 -145 -198 -208 -362 -197 -515 6 -89 31
-158 110 -296 67 -116 87 -170 87 -230 0 -78 -61 -163 -158 -220 -24 -14 -40
-29 -35 -33 19 -19 109 -40 166 -40 78 1 143 23 239 83 87 54 170 139 213 218
55 101 33 220 -65 355 -27 37 -48 69 -47 71 2 1 39 -10 82 -24 81 -27 139 -31
322 -21 54 3 65 0 88 -22 32 -29 65 -91 65 -119 0 -37 18 -31 69 25 60 65 77
102 92 194 16 93 -1 169 -49 222 -52 58 -99 77 -225 94 -62 8 -127 19 -146 24
-41 11 -81 47 -81 72 0 33 38 95 113 185 88 105 124 164 143 235 33 126 7 240
-72 320 -57 58 -107 83 -226 113 -140 34 -250 81 -348 146 -99 66 -166 135
-244 254 -87 130 -154 179 -291 211 -83 19 -265 21 -380 4 -130 -19 -313 -67
-360 -94 -60 -35 -120 -108 -142 -169 -29 -82 -24 -254 10 -387 28 -108 88
-274 150 -416 108 -243 126 -372 70 -495 -16 -36 -48 -82 -69 -103 -86 -84
-322 -168 -511 -183 l-83 -6 0 67 c0 50 5 75 19 94 31 44 100 189 132 276 47
126 72 241 73 341 1 113 -18 168 -79 224 -94 86 -235 131 -442 138 -79 3 -143
9 -143 12 0 3 11 17 25 29 14 13 30 42 36 64 14 52 -9 117 -52 151 -28 22 -30
28 -27 78 l3 54 53 3 52 3 0 110 0 109 -50 0 -50 0 0 50 0 50 -124 0 -125 0
-3 -47 -3 -48 -52 -3 -53 -3 0 -109 0 -109 53 -3 52 -3 3 -51 c3 -46 -1 -55
-33 -93 -48 -58 -51 -126 -10 -197 l24 -41 -137 -6 c-210 -8 -351 -53 -452
-144 -60 -54 -75 -94 -73 -203 2 -160 62 -370 161 -563 54 -107 54 -110 50
-179 -3 -38 -9 -73 -14 -78 -20 -19 -373 65 -524 125 -211 85 -419 233 -700
501 -47 44 -109 103 -138 129 l-53 49 6 50 c8 54 37 122 260 592 164 346 173
368 187 489 19 161 -16 337 -92 454 -75 118 -237 228 -415 284 -75 24 -302 67
-349 67 -16 0 -25 -10 -35 -35 -13 -38 -54 -75 -82 -75 -28 0 -85 55 -109 106
l-21 47 35 36 c41 42 62 89 72 158 8 66 -20 134 -69 163 -27 16 -37 31 -50 77
-8 32 -14 60 -11 64 2 4 32 -1 67 -12 34 -10 68 -19 75 -19 9 0 12 35 12 140
0 106 -3 140 -12 140 -7 -1 -38 -10 -68 -20z m298 -900 c31 0 29 -16 -22 -198
-25 -86 -72 -256 -105 -377 -74 -266 -74 -265 -100 -258 -12 3 -21 9 -21 13 0
4 20 106 46 226 25 121 61 294 80 386 43 209 47 222 77 214 12 -3 32 -6 45 -6z
m2159 -1554 c13 -11 55 -402 46 -419 -7 -12 -33 13 -33 32 0 9 -18 99 -40 200
-22 102 -40 191 -40 198 0 16 47 8 67 -11z m388 -51 c-7 -33 -28 -127 -45
-210 -31 -150 -41 -178 -60 -159 -11 11 31 410 46 423 11 11 56 19 66 11 4 -3
1 -32 -7 -65z m243 -910 c9 -3 12 -19 10 -47 -3 -43 -4 -43 -53 -56 -107 -26
-338 -36 -550 -23 -110 7 -231 17 -270 24 l-70 12 -3 44 c-2 24 -1 48 1 55 3
8 124 9 463 4 253 -4 465 -10 472 -13z m-122 -487 c-9 -55 -60 -141 -110 -184
l-39 -33 -41 24 c-86 50 -237 71 -656 89 -388 17 -413 25 -145 45 213 16 538
49 738 76 95 12 192 23 216 24 l44 1 -7 -42z m-1521 -278 c94 -5 214 -10 268
-10 53 0 97 -4 97 -8 0 -4 -13 -15 -28 -24 -46 -27 -207 -184 -271 -264 -80
-99 -172 -266 -156 -283 2 -2 46 30 97 71 126 100 217 165 318 228 95 60 301
161 312 154 4 -3 -23 -31 -60 -63 -124 -108 -261 -263 -338 -382 -39 -60 -64
-119 -51 -119 3 0 50 30 104 68 244 168 485 307 616 357 37 14 70 25 72 25 20
0 -16 -35 -152 -152 -86 -73 -181 -154 -210 -180 -83 -74 -82 -67 5 50 30 41
52 76 49 78 -8 8 -422 -259 -580 -374 -26 -19 -50 -32 -53 -29 -14 14 119 303
173 373 14 19 24 36 22 39 -6 6 -247 -157 -348 -235 -130 -101 -121 -96 -121
-72 0 30 62 172 121 276 72 128 173 271 239 338 l55 56 -63 7 c-34 4 -113 20
-175 37 -61 17 -122 32 -134 35 -13 3 -23 9 -23 14 0 5 10 7 23 4 12 -3 99 -9
192 -15z m5110 -77 c-73 -110 -161 -224 -290 -376 -55 -66 -116 -138 -135
-161 -99 -119 -341 -367 -354 -363 -6 2 -20 26 -32 54 l-23 51 62 48 c88 68
614 598 726 731 52 62 97 111 99 108 3 -3 -21 -44 -53 -92z m-1023 -729 c29
-135 29 -308 -1 -419 -24 -90 -76 -204 -144 -315 -25 -41 -44 -76 -43 -78 2
-1 23 2 47 8 84 20 307 24 387 7 125 -27 160 -70 148 -179 -13 -126 -112 -301
-251 -445 l-80 -83 40 0 c100 0 284 -81 360 -158 l47 -47 -5 -65 c-7 -105 -85
-254 -218 -420 l-52 -64 23 -15 c49 -33 179 -193 220 -272 l43 -82 -32 -65
c-18 -36 -58 -92 -89 -125 -54 -57 -180 -149 -222 -162 -27 -8 -26 -14 14 -82
19 -32 51 -107 72 -166 l37 -108 -18 -40 c-28 -62 -138 -158 -241 -212 l-90
-46 28 -87 c16 -48 34 -129 40 -180 11 -82 10 -98 -5 -128 -47 -99 -270 -196
-448 -196 l-49 0 0 -102 c0 -120 -16 -202 -60 -316 -28 -74 -35 -84 -68 -98
-55 -23 -130 -28 -221 -15 -70 10 -198 44 -253 66 -14 5 -18 -1 -23 -32 -16
-104 -30 -152 -71 -233 -39 -78 -48 -90 -84 -104 -88 -35 -227 -11 -366 64
l-72 38 -6 -38 c-8 -49 -72 -144 -133 -197 -26 -23 -68 -60 -93 -83 l-45 -41
-79 6 c-148 11 -258 66 -331 165 -20 28 -38 50 -40 50 -2 0 -18 -28 -36 -61
-39 -73 -116 -152 -191 -197 l-56 -33 -68 16 c-143 33 -233 92 -317 207 l-49
67 -39 -58 c-100 -150 -250 -230 -389 -206 -35 6 -40 10 -40 35 0 27 1 27 63
27 146 -1 292 122 402 342 20 40 40 70 44 65 4 -5 13 -33 19 -63 33 -148 128
-262 267 -320 76 -32 77 -32 125 -16 64 21 133 83 164 148 29 59 56 170 56
235 0 23 5 42 10 42 6 0 10 -5 10 -10 0 -6 17 -45 37 -86 69 -139 167 -222
309 -258 100 -26 106 -24 189 57 97 95 125 153 125 257 0 42 -9 108 -20 150
-10 41 -16 77 -13 80 3 3 8 0 10 -7 10 -27 82 -131 115 -165 79 -80 163 -114
313 -124 l92 -7 30 49 c53 88 68 140 67 239 -1 87 -9 119 -68 280 -4 11 7 2
25 -20 186 -224 298 -270 561 -228 35 5 39 10 58 61 56 150 63 296 17 395 -13
29 -50 81 -83 116 l-58 64 70 -36 c154 -78 272 -96 379 -59 56 19 177 96 214
136 23 24 23 27 12 101 -21 141 -88 235 -211 296 -27 13 -50 28 -50 33 0 4 7
5 16 2 10 -4 49 -9 88 -13 81 -6 152 6 223 39 55 25 203 168 203 195 0 33 -51
151 -88 204 -41 59 -119 113 -189 131 -24 6 -43 14 -43 18 0 4 29 10 64 13
143 13 271 81 383 201 96 104 96 99 28 203 -67 103 -165 202 -232 234 -35 17
-71 24 -135 27 -49 3 -88 8 -88 12 0 4 21 13 48 19 89 22 228 98 285 154 67
68 99 122 137 235 42 126 42 129 -33 180 -98 66 -177 94 -282 100 -107 5 -167
-6 -288 -54 -49 -20 -90 -34 -92 -32 -2 2 37 31 88 65 300 200 496 438 514
626 l6 67 -49 22 c-70 32 -226 32 -339 0 -110 -32 -248 -92 -386 -168 -64 -35
-119 -64 -123 -64 -4 0 24 26 61 58 159 137 308 313 381 450 95 180 122 293
129 545 3 121 9 195 15 189 5 -5 19 -54 30 -108z m1457 -170 c-103 -105 -348
-301 -614 -491 -218 -155 -353 -244 -359 -234 -3 4 -8 33 -12 64 l-7 56 94 46
c205 103 679 408 859 553 47 38 87 67 89 65 3 -2 -20 -29 -50 -59z m-2389
-690 c0 -8 -4 -14 -10 -14 -5 0 -10 9 -10 21 0 11 5 17 10 14 6 -3 10 -13 10
-21z m-15 -71 c-43 -300 -205 -649 -401 -861 -53 -58 -64 -76 -53 -83 8 -5 20
-9 28 -9 7 0 60 -23 118 -50 58 -28 143 -65 189 -81 46 -17 86 -35 89 -39 3
-5 0 -21 -6 -37 -22 -57 -50 -160 -60 -228 -18 -113 -42 -154 -122 -207 l-42
-28 32 0 c67 0 113 -32 185 -128 21 -29 72 -92 113 -141 l74 -88 -149 -152
c-152 -155 -189 -181 -255 -181 -45 0 -44 -15 4 -57 65 -56 72 -87 69 -328
l-3 -210 -115 -13 c-63 -6 -146 -22 -185 -33 -91 -28 -143 -28 -190 0 l-38 22
7 -23 c20 -68 18 -86 -17 -164 -20 -44 -48 -113 -62 -154 -15 -41 -30 -78 -34
-82 -3 -3 -46 4 -95 18 -50 13 -131 27 -180 30 -96 7 -153 28 -179 64 -13 19
-15 18 -20 -27 -5 -45 -11 -54 -99 -138 -51 -49 -114 -114 -138 -144 l-45 -53
-77 55 c-43 30 -108 67 -146 81 -78 30 -105 54 -126 111 -8 22 -15 32 -15 23
-1 -10 -19 -36 -40 -57 -33 -33 -58 -45 -143 -72 -57 -17 -134 -47 -172 -65
-37 -19 -72 -34 -76 -34 -4 0 -22 28 -40 63 -36 69 -68 115 -118 167 -42 44
-52 68 -52 131 0 34 8 66 26 102 30 60 105 169 111 163 3 -2 -10 -37 -28 -78
-21 -49 -34 -95 -37 -139 l-4 -66 77 -119 c43 -66 79 -121 81 -122 1 -2 40 10
86 26 46 17 116 40 156 52 57 17 78 29 97 55 29 38 70 134 80 188 10 52 25 46
25 -10 0 -61 22 -155 44 -187 9 -14 37 -36 63 -48 27 -13 85 -45 130 -72 l82
-48 58 55 c32 30 79 73 106 94 66 53 82 98 73 211 -4 48 -9 103 -12 122 -5 30
2 22 45 -50 61 -102 119 -160 158 -160 15 -1 88 -11 161 -23 l132 -23 16 46
c9 25 32 81 50 125 50 118 44 174 -30 290 -20 30 -36 58 -36 61 0 3 28 -18 63
-46 34 -28 91 -65 126 -82 l64 -32 136 28 c75 15 157 32 184 38 l47 10 0 163
0 163 -32 48 c-34 51 -125 125 -226 185 l-58 34 155 0 c111 0 166 4 189 14 21
9 74 63 148 149 l115 135 -73 76 c-40 42 -94 100 -120 129 -26 29 -60 57 -75
64 -15 6 -82 14 -148 17 -133 7 -134 2 10 62 40 16 89 44 109 62 34 29 38 39
52 122 8 50 24 125 35 169 11 43 19 79 17 80 -2 1 -30 12 -63 25 -33 13 -104
44 -158 68 -96 44 -99 45 -157 35 -32 -6 -89 -24 -128 -40 l-70 -30 137 136
c315 316 508 643 585 995 10 45 19 30 11 -20z m2584 -26 c-102 -93 -297 -228
-544 -376 -188 -113 -445 -246 -455 -235 -12 13 -39 114 -31 118 3 2 56 23
116 46 204 79 635 296 855 431 52 32 97 58 100 58 3 0 -16 -18 -41 -42z m256
-845 c-68 -59 -1150 -411 -1178 -383 -13 13 -29 103 -19 113 5 5 93 26 198 47
185 38 570 129 829 195 133 34 187 43 170 28z m-30 -871 c-30 -28 -1077 -184
-1096 -163 -4 4 -9 30 -13 59 -6 44 -4 53 11 61 46 24 1121 66 1098 43z m-858
-686 c433 -49 713 -90 713 -105 0 -29 -777 -24 -1013 6 l-49 6 7 47 c8 62 15
81 26 81 5 0 147 -16 316 -35z m-5962 -176 c10 -16 3 -19 -72 -35 -193 -40
-317 -166 -424 -431 -23 -58 -46 -102 -53 -100 -6 2 -12 21 -14 43 -2 30 4 50
23 77 30 46 31 53 5 60 -11 3 -20 10 -20 15 0 16 104 125 134 141 31 17 33 27
6 34 -11 3 -20 9 -20 15 0 11 57 50 130 88 37 19 49 29 38 32 -10 2 -18 7 -18
12 0 8 79 41 125 53 39 9 154 7 160 -4z m5873 -465 c419 -161 603 -237 579
-242 -40 -8 -440 89 -697 168 -243 75 -294 92 -303 100 -11 9 39 110 54 110 6
0 171 -61 367 -136z m-6330 -213 c140 -70 232 -107 301 -122 28 -6 51 -14 51
-19 0 -5 3 -15 6 -24 15 -39 -95 -4 -316 99 -180 84 -194 93 -179 111 6 8 13
14 15 14 3 0 57 -26 122 -59z m5926 -225 c214 -140 541 -370 551 -387 4 -5 3
-9 0 -9 -27 0 -488 231 -750 376 -123 68 -114 55 -75 113 22 33 41 50 51 48 8
-2 109 -66 223 -141z m-609 -413 c50 -54 151 -163 226 -243 208 -223 331 -370
287 -344 -126 74 -708 575 -708 609 0 12 78 73 95 74 6 1 51 -43 100 -96z
m-497 -548 c159 -316 211 -430 194 -423 -14 5 -171 203 -249 313 -139 197
-241 371 -227 385 9 7 118 50 120 46 1 0 74 -145 162 -321z m-798 33 c5 -13
14 -57 20 -98 6 -41 31 -165 55 -275 48 -219 61 -305 48 -305 -9 1 -156 315
-191 410 -27 75 -72 237 -72 262 0 17 22 24 93 27 30 1 39 -3 47 -21z m-837
-105 c11 -7 8 -81 -9 -210 -18 -140 -67 -358 -80 -358 -5 0 -14 36 -21 80 -14
95 -29 465 -20 489 6 15 16 16 64 10 32 -3 61 -8 66 -11z m-893 -1535 c204
-72 368 -181 460 -306 52 -70 146 -275 130 -280 -6 -2 -31 15 -57 38 -48 42
-166 116 -263 166 -65 33 -273 113 -279 108 -2 -2 3 -12 12 -22 27 -29 57
-108 72 -184 7 -40 11 -76 9 -80 -3 -4 -27 1 -54 12 -74 29 -199 63 -445 120
-120 27 -223 54 -228 59 -14 14 102 52 178 58 64 5 224 -10 260 -23 11 -5 15
1 15 19 0 26 -78 106 -153 157 -20 14 -37 28 -37 33 0 19 61 29 160 24 110 -4
189 -26 360 -96 41 -17 76 -31 78 -31 19 0 -46 73 -105 118 -46 36 -162 95
-270 138 -40 16 -73 32 -73 36 0 8 116 -24 230 -64z m3180 -116 c0 -4 -11 -47
-25 -97 -13 -49 -22 -91 -20 -93 3 -3 50 5 105 17 160 34 150 39 150 -78 0
-55 -3 -102 -7 -104 -5 -2 -66 6 -136 18 -70 11 -129 19 -131 18 -2 -2 10 -47
26 -100 16 -54 27 -102 24 -109 -3 -7 -42 -10 -127 -7 -67 2 -125 5 -127 8 -3
3 12 48 33 100 21 53 35 99 31 102 -3 3 -62 -7 -131 -24 -69 -16 -127 -28
-130 -25 -7 7 -7 242 0 242 3 0 57 -11 121 -25 64 -14 122 -25 129 -25 10 0 8
20 -11 87 -13 49 -24 91 -24 95 0 5 56 8 125 8 69 0 125 -3 125 -8z m-2381
-484 c25 -79 41 -171 47 -273 7 -117 -2 -292 -16 -315 -7 -11 -34 11 -112 88
-109 107 -137 131 -153 132 -5 0 -23 -35 -38 -78 -30 -81 -95 -200 -121 -221
-13 -11 -16 -8 -21 16 -3 15 -33 111 -66 212 -32 101 -58 186 -55 188 2 2 39
-44 82 -102 54 -74 80 -102 86 -93 20 31 48 145 48 194 0 31 4 54 10 54 28 0
83 -41 167 -123 51 -50 95 -88 98 -85 11 11 27 227 23 329 -1 60 0 109 4 109
3 0 11 -15 17 -32z m2004 -275 c8 -16 -20 -614 -29 -622 -5 -5 -161 -12 -346
-16 -286 -6 -338 -5 -338 7 0 24 70 161 126 246 131 196 330 346 509 382 54
11 73 11 78 3z m685 -25 c93 -35 145 -70 238 -162 101 -100 174 -204 239 -341
46 -97 80 -193 72 -201 -8 -9 -667 72 -678 83 -8 8 7 610 17 641 4 14 31 10
112 -20z m-5588 -646 c0 -15 9 -60 20 -100 45 -160 171 -359 287 -453 25 -20
39 -37 33 -43 -13 -13 -181 18 -242 46 -138 64 -250 208 -283 365 -6 24 -5 26
7 12 60 -72 128 -144 155 -165 l33 -25 -12 28 c-16 39 -24 363 -9 363 6 0 11
-12 11 -28z m1640 -691 l0 -67 53 -13 c105 -27 342 -93 346 -97 14 -13 -25
-14 -180 -4 -308 19 -339 29 -339 106 0 44 33 130 62 161 l23 24 17 -21 c13
-16 18 -40 18 -89z m3630 89 c384 -22 770 -69 770 -94 0 -13 -83 -121 -138
-178 -34 -35 -37 -37 -54 -21 -21 19 -23 46 -5 62 17 13 52 89 45 96 -7 7
-272 33 -468 45 -251 15 -1090 26 -1090 13 0 -21 86 -137 134 -180 50 -45 157
-128 191 -148 17 -10 17 -12 0 -38 -22 -34 -32 -34 -105 3 -71 36 -185 141
-245 225 -52 73 -112 192 -102 202 21 20 768 30 1067 13z m203 -204 c40 -16
110 -98 137 -158 31 -72 35 -119 12 -170 -23 -53 -59 -81 -167 -129 -44 -19
-121 -63 -171 -97 -126 -84 -247 -121 -400 -122 -40 0 -73 -10 -145 -44 -128
-60 -220 -79 -364 -75 l-114 4 -113 58 c-119 60 -273 155 -266 163 3 2 43 -13
89 -35 302 -141 391 -163 510 -127 65 20 95 36 252 138 76 49 177 107 225 129
203 93 227 109 270 186 38 67 82 101 175 135 53 19 57 23 57 52 0 17 -9 45
-19 63 -27 44 -19 51 32 29z m-4423 -726 c25 -20 104 -83 175 -140 72 -57 218
-176 325 -265 107 -88 238 -195 290 -237 52 -42 111 -91 130 -107 l35 -31
-110 39 c-129 45 -186 57 -213 42 -19 -10 -19 -11 0 -78 29 -99 36 -310 14
-388 -17 -58 -42 -105 -56 -105 -4 0 -10 46 -14 102 -18 286 -117 554 -299
808 -48 67 -133 174 -167 210 -3 3 -52 55 -110 115 -100 103 -100 116 0 35z"/>
<path d="M5 10378 c-3 -40 -5 -106 -3 -146 l3 -73 35 23 c32 22 35 28 38 79 3
55 -17 121 -52 171 -13 18 -15 13 -21 -54z"/>
<path d="M0 9671 l0 -88 38 -6 c20 -4 88 -9 151 -13 l113 -7 -16 30 c-33 66
-167 155 -248 166 l-38 6 0 -88z"/>
<path d="M0 4426 l0 -968 98 4 c80 3 106 9 148 30 119 62 188 189 200 373 10
134 -8 203 -181 720 -85 253 -179 539 -209 635 l-55 175 -1 -969z"/>
</g>
</svg>
